<svg width="261" height="592" viewBox="0 0 261 592" fill="none" xmlns="http://www.w3.org/2000/svg">
<path d="M5.24237 40.9505V551.247C5.24237 553.042 5.36302 554.805 5.58969 556.536C5.65317 556.96 5.71733 557.393 5.78777 557.81C6.14905 559.957 6.68678 562.032 7.38075 564.019C7.51537 564.428 7.66393 564.837 7.82016 565.237C8.79729 567.745 10.0297 570.109 11.4741 572.28C11.6157 572.481 11.7573 572.697 11.8989 572.898C12.8976 574.34 14.0094 575.678 15.1915 576.928C15.6728 577.434 16.1687 577.914 16.6785 578.379C16.8557 578.555 17.0398 578.715 17.2239 578.868C17.7693 579.348 18.3287 579.805 18.902 580.246C18.9376 580.278 18.9731 580.31 19.008 580.334C19.3623 580.591 19.7159 580.847 20.0702 581.096C20.4671 581.368 20.8702 581.632 21.274 581.889C21.6848 582.137 22.0957 582.386 22.5134 582.618C22.7185 582.73 22.9312 582.85 23.1362 582.954C23.349 583.074 23.561 583.186 23.7737 583.283C24.4182 583.603 25.0696 583.892 25.735 584.164C26.1744 584.349 26.62 584.517 27.0664 584.669C27.2931 584.749 27.5197 584.83 27.7464 584.901C28.4334 585.11 29.1274 585.31 29.8283 585.47C30.055 585.527 30.2886 585.583 30.5293 585.631C30.7699 585.679 31.0035 585.727 31.2372 585.767C31.7114 585.856 32.1934 585.935 32.6746 585.991C33.0143 586.047 33.3546 586.072 33.6943 586.103C33.9775 586.127 34.2606 586.144 34.5438 586.159C35.0753 586.192 35.599 586.208 36.1368 586.208H224.136C224.681 586.208 225.212 586.192 225.743 586.159C226.026 586.144 226.309 586.127 226.593 586.103C227.145 586.055 227.69 585.999 228.243 585.927C228.03 585.952 227.825 585.968 227.612 585.991C243.021 584.029 255.038 569.196 255.038 551.246V40.9505C255.038 22.2871 242.044 6.99051 225.743 6.0363H225.722C225.198 6.00394 224.674 5.98816 224.136 5.98816H36.1375C35.5991 5.98816 35.0822 6.00394 34.5515 6.0363H34.5445C34.2613 6.05209 33.9782 6.06866 33.695 6.09234C33.4258 6.11602 33.1426 6.14838 32.8664 6.17206C17.3655 8.03154 5.24306 22.92 5.24306 40.9498L5.24237 40.9505Z" fill="white" stroke="white" stroke-width="2" stroke-miterlimit="10"/>
<path d="M36.1373 1.19666H224.142C243.545 1.19666 259.279 18.9943 259.279 40.9506V551.247C259.279 573.203 243.545 591 224.142 591H36.1373C16.7348 591 1.00024 573.203 1.00024 551.247V40.9506C1.00024 18.9943 16.7348 1.19666 36.1373 1.19666ZM15.1913 576.929C15.6726 577.434 16.1685 577.915 16.6783 578.38C16.8554 578.556 17.0396 578.716 17.2237 578.868C17.7691 579.349 18.3285 579.806 18.9018 580.246C18.9374 580.279 18.9729 580.31 19.0078 580.335C19.3621 580.591 19.7157 580.848 20.07 581.097C20.4669 581.369 20.87 581.633 21.2738 581.89C21.6846 582.138 22.0954 582.387 22.5132 582.619C22.7183 582.731 22.931 582.851 23.136 582.955C23.3487 583.075 23.5608 583.187 23.7735 583.284C24.4179 583.604 25.0694 583.893 25.7347 584.165C26.1741 584.35 26.6198 584.518 27.0662 584.67C27.2928 584.75 27.5195 584.83 27.7462 584.902C28.4332 585.111 29.1272 585.311 29.8281 585.471C30.0548 585.527 30.2884 585.583 30.529 585.632C30.7697 585.68 31.0033 585.728 31.237 585.768C31.7112 585.857 32.1932 585.936 32.6744 585.992C33.0141 586.048 33.3544 586.073 33.6941 586.104C33.9772 586.128 34.2604 586.145 34.5436 586.16C35.075 586.193 35.5988 586.209 36.1366 586.209H224.135C224.681 586.209 225.211 586.193 225.743 586.16C226.026 586.145 226.309 586.128 226.592 586.104C227.145 586.056 227.69 586 228.243 585.928C228.03 585.953 227.825 585.969 227.612 585.992C243.021 584.029 255.037 569.197 255.037 551.247V40.9506C255.037 22.2871 242.044 6.99057 225.743 6.03636H225.722C225.198 6.004 224.674 5.98822 224.136 5.98822H36.1373C35.5988 5.98822 35.082 6.004 34.5513 6.03636H34.5443C34.2611 6.05215 33.978 6.06872 33.6948 6.0924C33.4256 6.11608 33.1424 6.14844 32.8662 6.17211C17.3653 8.0316 5.24284 22.9201 5.24284 40.9498V551.247C5.24284 553.042 5.36351 554.805 5.59018 556.536C5.65366 556.96 5.71782 557.393 5.78825 557.81C6.14954 559.957 6.68727 562.032 7.38124 564.019C7.51585 564.428 7.66441 564.837 7.82063 565.237C8.79778 567.746 10.0302 570.109 11.4746 572.281C11.6162 572.481 11.7578 572.697 11.8993 572.898C12.8981 574.34 14.0098 575.678 15.192 576.928L15.1913 576.929Z" fill="white" stroke="#262626" stroke-width="2" stroke-miterlimit="10"/>
<path d="M109.243 19.8939H151.036C152.525 19.8939 153.732 21.2595 153.732 22.944C153.732 24.6285 152.525 25.9941 151.036 25.9941H109.243C107.755 25.9941 106.548 24.6285 106.548 22.944C106.548 21.2595 107.755 19.8939 109.243 19.8939Z" fill="white" stroke="#262626" stroke-width="2" stroke-miterlimit="10"/>
<path d="M34.8903 19.6936H35.0598L35.3144 19.6644C35.6143 19.6494 35.8884 19.6494 36.143 19.6494H63.269C64.8216 19.7378 66.0735 21.0961 66.2297 22.8301C66.236 22.9485 66.243 23.0661 66.243 23.1916V23.2358C66.6147 32.2325 73.1764 39.3918 81.2117 39.3918H179.069C187.105 39.3918 193.666 32.2325 194.038 23.2358V23.1916C194.038 23.0661 194.044 22.9477 194.051 22.8301C194.208 21.0953 195.46 19.7378 197.012 19.6494H224.137C224.392 19.6494 224.665 19.6494 224.966 19.6644L225.221 19.6936H225.39C235.265 20.4245 242.974 29.7242 242.974 40.9577V551.248C242.974 562.289 235.356 571.625 225.638 572.489C225.54 572.496 225.461 572.504 225.383 572.511H225.318L225.265 572.518H225.154L225.115 572.526C224.79 572.541 224.463 572.555 224.137 572.555H36.1423C35.8159 572.555 35.4901 572.54 35.1637 572.526L35.1247 572.518H35.0138L34.9615 572.511H34.8959C34.8178 572.504 34.7397 572.496 34.642 572.489C24.9237 571.625 17.3061 562.289 17.3061 551.248V40.9569C17.3061 29.7235 25.0151 20.4237 34.8896 19.6928L34.8903 19.6936Z" fill="white" stroke="#191918" stroke-width="2" stroke-miterlimit="10"/>
<g style="mix-blend-mode:multiply">
<path d="M34.8903 19.6936H35.0598L35.3144 19.6644C35.6143 19.6494 35.8884 19.6494 36.143 19.6494H63.269C64.8216 19.7378 66.0735 21.0961 66.2297 22.8301C66.236 22.9485 66.243 23.0661 66.243 23.1916V23.2358C66.6147 32.2325 73.1764 39.3918 81.2117 39.3918H179.069C187.105 39.3918 193.666 32.2325 194.038 23.2358V23.1916C194.038 23.0661 194.044 22.9477 194.051 22.8301C194.208 21.0953 195.46 19.7378 197.012 19.6494H224.137C224.392 19.6494 224.665 19.6494 224.966 19.6644L225.221 19.6936H225.39C235.265 20.4245 242.974 29.7242 242.974 40.9577V551.248C242.974 562.289 235.356 571.625 225.638 572.489C225.54 572.496 225.461 572.504 225.383 572.511H225.318L225.265 572.518H225.154L225.115 572.526C224.79 572.541 224.463 572.555 224.137 572.555H36.1423C35.8159 572.555 35.4901 572.54 35.1637 572.526L35.1247 572.518H35.0138L34.9615 572.511H34.8959C34.8178 572.504 34.7397 572.496 34.642 572.489C24.9237 571.625 17.3061 562.289 17.3061 551.248V40.9569C17.3061 29.7235 25.0151 20.4237 34.8896 19.6928L34.8903 19.6936Z" fill="url(#paint0_linear_325_422)"/>
<path d="M34.8903 19.6936H35.0598L35.3144 19.6644C35.6143 19.6494 35.8884 19.6494 36.143 19.6494H63.269C64.8216 19.7378 66.0735 21.0961 66.2297 22.8301C66.236 22.9485 66.243 23.0661 66.243 23.1916V23.2358C66.6147 32.2325 73.1764 39.3918 81.2117 39.3918H179.069C187.105 39.3918 193.666 32.2325 194.038 23.2358V23.1916C194.038 23.0661 194.044 22.9477 194.051 22.8301C194.208 21.0953 195.46 19.7378 197.012 19.6494H224.137C224.392 19.6494 224.665 19.6494 224.966 19.6644L225.221 19.6936H225.39C235.265 20.4245 242.974 29.7242 242.974 40.9577V551.248C242.974 562.289 235.356 571.625 225.638 572.489C225.54 572.496 225.461 572.504 225.383 572.511H225.318L225.265 572.518H225.154L225.115 572.526C224.79 572.541 224.463 572.555 224.137 572.555H36.1423C35.8159 572.555 35.4901 572.54 35.1637 572.526L35.1247 572.518H35.0138L34.9615 572.511H34.8959C34.8178 572.504 34.7397 572.496 34.642 572.489C24.9237 571.625 17.3061 562.289 17.3061 551.248V40.9569C17.3061 29.7235 25.0151 20.4237 34.8896 19.6928L34.8903 19.6936Z" stroke="#191918"/>
</g>
<path d="M94.0635 22.6992C94.0635 20.8793 95.3672 19.4041 96.9753 19.4041C98.5835 19.4041 99.8872 20.8793 99.8872 22.6992C99.8872 24.519 98.5835 25.9943 96.9753 25.9943C95.3672 25.9943 94.0635 24.519 94.0635 22.6992Z" fill="white" stroke="#262626" stroke-width="2" stroke-miterlimit="10"/>
<defs>
<linearGradient id="paint0_linear_325_422" x1="234.322" y1="572.274" x2="-23.275" y2="42.733" gradientUnits="userSpaceOnUse">
<stop stop-color="#5300A6"/>
<stop offset="1" stop-color="#A889FF"/>
</linearGradient>
</defs>
</svg>
